<?xml version="1.0" encoding="UTF-8" standalone="no"?>
<!DOCTYPE svg PUBLIC "-//W3C//DTD SVG 1.1//EN" "http://www.w3.org/Graphics/SVG/1.1/DTD/svg11.dtd">
<svg xmlns="http://www.w3.org/2000/svg" version="1.1" viewBox="0.00 0.00 516.00 483.00">
<path fill="#875ded" d="
  M 211.40 89.65
  C 174.30 115.16 148.77 161.52 150.85 207.00
  C 152.45 242.06 170.99 275.14 203.24 290.56
  C 219.40 298.29 234.86 297.63 251.95 293.83
  Q 264.65 291.00 274.31 282.29
  C 281.82 275.52 284.96 270.76 289.30 264.50
  Q 289.87 263.67 289.73 264.67
  Q 288.01 276.49 281.21 284.94
  Q 258.12 313.65 221.98 314.34
  C 198.35 314.79 171.74 304.38 154.91 287.84
  C 132.00 265.34 119.33 234.47 118.12 202.49
  C 117.15 176.99 121.87 151.19 132.76 128.06
  C 141.52 109.47 155.23 93.10 170.14 79.15
  C 205.61 45.99 255.11 31.33 302.92 41.20
  C 309.53 42.57 316.31 43.77 322.59 45.73
  C 336.32 50.00 349.89 55.02 362.63 61.86
  Q 370.92 66.30 378.03 70.69
  C 383.61 74.13 388.85 78.40 394.64 82.45
  Q 396.15 83.50 396.52 84.39
  Q 397.69 87.18 395.04 85.72
  C 375.41 74.90 352.56 65.07 330.23 63.00
  Q 312.15 61.32 294.02 62.17
  Q 248.27 64.30 211.40 89.65
  Z"
/>
<path fill="#875ded" d="
  M 109.56 133.56
  C 92.79 172.46 92.07 213.83 105.76 253.24
  C 117.55 287.16 148.48 322.16 183.39 333.07
  C 196.88 337.28 212.91 340.41 226.98 338.13
  C 233.16 337.13 239.68 336.32 245.36 334.68
  C 282.37 323.95 309.98 291.75 310.80 252.21
  Q 310.81 252.03 310.99 252.04
  Q 311.12 252.04 311.25 252.04
  Q 311.27 252.04 311.28 252.06
  C 317.18 275.76 316.50 298.23 304.66 319.61
  C 282.77 359.14 234.20 375.67 191.33 368.57
  C 152.90 362.21 116.60 338.06 95.45 305.41
  C 83.46 286.89 74.11 266.86 70.24 244.99
  C 67.99 232.22 66.26 218.81 66.26 206.27
  C 66.29 169.71 78.58 134.62 102.18 106.16
  C 119.97 84.71 140.44 66.88 165.59 54.35
  Q 186.26 44.06 201.73 38.71
  A 0.27 0.27 0.0 0 1 202.08 38.89
  L 202.17 39.18
  A 0.70 0.69 68.3 0 1 201.83 39.98
  Q 184.79 49.24 179.79 53.04
  Q 168.89 61.33 157.74 69.28
  C 151.02 74.07 144.30 82.29 137.97 89.07
  Q 133.39 93.96 129.96 98.80
  C 121.70 110.45 115.16 120.58 109.56 133.56
  Z"
/>
<path fill="#875ded" d="
  M 429.92 354.68
  Q 437.39 338.70 441.12 326.72
  C 447.96 304.72 449.73 282.72 446.81 259.93
  C 443.70 235.67 436.31 212.43 423.01 191.73
  C 409.24 170.32 392.96 153.63 370.38 140.90
  Q 335.47 121.23 295.26 124.59
  C 247.84 128.55 201.51 160.83 193.99 210.41
  C 190.99 230.24 196.83 254.48 209.92 269.51
  Q 210.06 269.68 210.27 270.25
  Q 210.36 270.50 210.28 270.76
  A 0.31 0.31 0.0 0 1 209.83 270.94
  Q 207.46 269.58 205.35 267.88
  C 192.77 257.74 185.49 246.28 179.75 231.85
  Q 176.42 223.49 175.12 217.42
  C 171.81 202.00 173.47 185.18 178.57 170.30
  C 181.69 161.21 185.02 151.77 189.83 143.76
  C 222.18 89.86 285.76 69.40 345.26 81.71
  C 366.84 86.17 385.42 95.16 403.89 106.90
  C 411.73 111.88 418.07 118.41 424.86 124.65
  C 437.23 135.99 444.82 148.99 452.23 163.82
  Q 454.45 168.25 456.66 174.98
  C 459.12 182.42 461.99 188.66 464.07 197.15
  Q 465.14 201.49 466.03 207.43
  C 466.77 212.33 467.76 217.52 468.18 222.21
  Q 471.70 261.68 462.34 300.76
  C 458.26 317.80 452.00 331.55 443.46 348.76
  C 430.96 373.94 410.58 397.08 389.39 415.39
  C 378.83 424.52 368.31 431.76 355.55 437.14
  Q 355.40 437.21 355.33 437.06
  L 355.32 437.06
  Q 355.25 436.91 355.39 436.82
  Q 356.67 436.03 359.51 434.77
  C 368.12 430.96 375.47 424.44 384.29 416.56
  Q 412.96 390.95 429.92 354.68
  Z"
/>
<path fill="#875ded" d="
  M 332.84 405.11
  C 356.80 386.26 373.60 361.10 382.85 331.79
  C 398.22 283.09 382.59 230.18 343.19 197.81
  C 315.78 175.29 273.88 169.31 243.05 188.51
  Q 235.20 193.40 225.02 203.25
  C 220.72 207.40 216.83 216.94 214.45 222.48
  Q 214.16 223.15 214.10 223.21
  Q 212.87 224.33 212.98 222.67
  C 215.09 189.83 244.18 161.08 274.77 152.07
  C 312.43 140.98 352.24 150.00 381.43 176.14
  C 392.64 186.18 403.63 197.34 411.45 210.30
  Q 414.51 215.36 422.00 231.74
  Q 425.87 240.21 428.96 256.01
  C 439.09 307.72 424.25 359.54 389.89 399.12
  C 376.00 415.12 361.42 429.20 343.73 440.99
  Q 341.42 442.53 334.02 445.22
  Q 311.94 453.24 288.76 457.03
  C 263.48 461.16 236.10 459.80 211.22 453.86
  C 176.63 445.59 145.17 428.84 118.41 407.08
  Q 111.16 401.19 103.25 392.51
  A 0.50 0.49 -43.7 0 1 103.27 391.82
  L 103.45 391.65
  Q 103.63 391.47 103.80 391.65
  Q 112.14 400.22 122.50 406.25
  Q 132.46 412.04 142.41 417.86
  Q 156.99 426.39 165.23 428.98
  Q 174.61 431.92 184.01 434.72
  C 220.75 445.66 260.25 442.26 295.18 428.15
  C 308.48 422.78 321.34 414.15 332.84 405.11
  Z"
/>
<path fill="#875ded" d="
  M 364.22 307.99
  C 356.63 374.89 301.03 418.48 237.29 425.14
  C 222.82 426.65 206.16 426.47 191.96 423.46
  Q 161.89 417.09 135.32 401.71
  Q 130.78 399.08 115.33 387.67
  Q 100.82 376.96 86.72 358.56
  Q 63.18 327.82 54.08 290.54
  C 50.89 277.52 49.38 262.57 48.70 249.01
  C 48.13 237.85 50.05 226.26 51.61 215.07
  Q 51.65 214.79 51.93 214.81
  L 52.21 214.84
  A 0.62 0.61 2.1 0 1 52.77 215.44
  C 52.93 233.73 53.74 252.12 58.53 269.00
  Q 60.73 276.71 66.18 291.06
  C 72.75 308.35 82.56 323.92 94.37 338.12
  C 134.46 386.34 197.18 407.54 257.67 387.62
  C 267.02 384.55 274.63 380.29 283.65 374.45
  C 299.86 363.94 312.33 350.77 322.81 334.07
  C 342.27 303.07 344.96 261.85 323.01 231.22
  Q 308.16 210.49 283.70 204.07
  C 280.46 203.22 277.11 203.36 273.75 203.35
  Q 273.56 203.35 273.53 203.16
  L 273.49 202.83
  A 0.42 0.42 0.0 0 1 273.87 202.35
  C 295.67 200.14 319.20 208.30 335.20 223.12
  C 357.86 244.14 367.64 277.90 364.22 307.99
  Z"
/>
</svg>
